{
  "asset": {
    "generator": "gltfeditor.com",
    "version": "2.0"
  },
  "buffers": [
    {
      "uri": "data:application/octet-stream;base64,",
      "byteLength": 917904
    }
  ],
  "bufferViews": [
    {
      "buffer": 0,
      "byteOffset": 212544,
      "byteLength": 12504,
      "target": 34962,
      "byteStride": 12
    },
    {
      "buffer": 0,
      "byteOffset": 225048,
      "byteLength": 12504,
      "target": 34962,
      "byteStride": 12
    },
    {
      "buffer": 0,
      "byteOffset": 237552,
      "byteLength": 8336,
      "target": 34962,
      "byteStride": 8
    },
    {
      "buffer": 0,
      "byteOffset": 245888,
      "byteLength": 3384,
      "target": 34963
    },
    {
      "buffer": 0,
      "byteOffset": 249272,
      "byteLength": 240,
      "target": 34962,
      "byteStride": 12
    },
    {
      "buffer": 0,
      "byteOffset": 249512,
      "byteLength": 240,
      "target": 34962,
      "byteStride": 12
    },
    {
      "buffer": 0,
      "byteOffset": 249752,
      "byteLength": 160,
      "target": 34962,
      "byteStride": 8
    },
    {
      "buffer": 0,
      "byteOffset": 249912,
      "byteLength": 108,
      "target": 34963
    }
  ],
  "accessors": [
    {
      "bufferView": 0,
      "byteOffset": 0,
      "componentType": 5126,
      "normalized": false,
      "count": 1042,
      "max": [
        0.23112612962722778,
        0.20252808928489685,
        0.29261258244514465
      ],
      "min": [
        -0.23116877675056458,
        -0.2502393424510956,
        -0.19165420532226562
      ],
      "type": "VEC3"
    },
    {
      "bufferView": 1,
      "byteOffset": 0,
      "componentType": 5126,
      "normalized": false,
      "count": 1042,
      "max": [
        1,
        0.9953911900520325,
        0.9781213998794556
      ],
      "min": [
        -1,
        -0.9781058430671692,
        -0.9780743718147278
      ],
      "type": "VEC3"
    },
    {
      "bufferView": 2,
      "byteOffset": 0,
      "componentType": 5126,
      "normalized": false,
      "count": 1042,
      "max": [
        0.9922478795051575,
        0.9764532446861267
      ],
      "min": [
        -1.862645149230957e-7,
        0
      ],
      "type": "VEC2"
    },
    {
      "bufferView": 3,
      "byteOffset": 0,
      "componentType": 5123,
      "normalized": false,
      "count": 1692,
      "max": [
        1041
      ],
      "min": [
        0
      ],
      "type": "SCALAR"
    },
    {
      "bufferView": 4,
      "byteOffset": 0,
      "componentType": 5126,
      "normalized": false,
      "count": 20,
      "max": [
        0.06466042250394821,
        0.052405957132577896,
        -0.016147781163454056
      ],
      "min": [
        -0.06453398615121841,
        -0.07410207390785217,
        -0.04307675361633301
      ],
      "type": "VEC3"
    },
    {
      "bufferView": 5,
      "byteOffset": 0,
      "componentType": 5126,
      "normalized": false,
      "count": 20,
      "max": [
        -4.289189519113279e-7,
        0.2081202268600464,
        0.9781032800674438
      ],
      "min": [
        -4.289189519113279e-7,
        0.2081202268600464,
        0.9781032800674438
      ],
      "type": "VEC3"
    },
    {
      "bufferView": 6,
      "byteOffset": 0,
      "componentType": 5126,
      "normalized": false,
      "count": 20,
      "max": [
        0.34612351655960083,
        0.846123456954956
      ],
      "min": [
        0.1555141657590866,
        0.6555123329162598
      ],
      "type": "VEC2"
    },
    {
      "bufferView": 7,
      "byteOffset": 0,
      "componentType": 5123,
      "normalized": false,
      "count": 54,
      "max": [
        19
      ],
      "min": [
        0
      ],
      "type": "SCALAR"
    }
  ],
  "scene": 0,
  "scenes": [
    {
      "nodes": [
        2
      ],
      "name": "Scene"
    }
  ],
  "nodes": [
    {
      "name": "Canon.018",
      "matrix": [
        1,
        0,
        0,
        0,
        0,
        0.9781476259231567,
        0.20791170001029968,
        0,
        0,
        -0.20791170001029968,
        0.9781476259231567,
        0,
        0,
        0,
        0.10000000149011612,
        1
      ],
      "mesh": 0
    },
    {
      "name": "Turret.018",
      "children": [
        0
      ]
    },
    {
      "name": "Base.018",
      "children": [
        1
      ]
    }
  ],
  "meshes": [
    {
      "primitives": [
        {
          "attributes": {
            "POSITION": 0,
            "NORMAL": 1,
            "TEXCOORD_0": 2
          },
          "material": 0,
          "mode": 4,
          "indices": 3
        },
        {
          "attributes": {
            "POSITION": 4,
            "NORMAL": 5,
            "TEXCOORD_0": 6
          },
          "material": 1,
          "mode": 4,
          "indices": 7
        }
      ]
    }
  ],
  "materials": [
    {
      "pbrMetallicRoughness": {
        "baseColorFactor": [
          0.00392156862745098,
          0.00392156862745098,
          0.00392156862745098,
          1
        ],
        "metallicFactor": 0.22857144474983215,
        "roughnessFactor": 0.8999999761581421
      },
      "emissiveFactor": [
        0,
        0,
        0
      ],
      "alphaMode": "OPAQUE",
      "doubleSided": true
    },
    {
      "pbrMetallicRoughness": {
        "baseColorFactor": [
          1,
          1,
          1,
          1
        ],
        "metallicFactor": 1,
        "roughnessFactor": 1
      },
      "emissiveFactor": [
        1,
        0.7450980392156863,
        0
      ],
      "alphaMode": "OPAQUE",
      "doubleSided": true
    }
  ]
}